<?xml version="1.0" encoding="utf-8"?>
<!-- Generator: Adobe Illustrator 18.0.0, SVG Export Plug-In . SVG Version: 6.00 Build 0)  -->
<!DOCTYPE svg PUBLIC "-//W3C//DTD SVG 1.1//EN" "http://www.w3.org/Graphics/SVG/1.1/DTD/svg11.dtd">
<svg version="1.1" id="Calque_1" xmlns="http://www.w3.org/2000/svg" xmlns:xlink="http://www.w3.org/1999/xlink" x="0px" y="0px"
	 viewBox="0 0 263.3 47.6" enable-background="new 0 0 263.3 47.6" xml:space="preserve">
<g>
	<defs>
		<rect id="SVGID_1_" x="1" y="0" width="261" height="47.7"/>
	</defs>
	<clipPath id="SVGID_2_">
		<use xlink:href="#SVGID_1_"  overflow="visible"/>
	</clipPath>
	<path clip-path="url(#SVGID_2_)" d="M256,1.1c-3.3,0-6,2.7-6,6s2.7,6,6,6s6-2.7,6-6S259.3,1.1,256,1.1 M261.3,16.1h-10.7v30.3h10.7
		V16.1z M228.4,24.3c3.8,0,6.9,3.1,6.9,7c0,3.8-3.1,6.9-6.9,6.9c-3.8,0-7-3.1-7-7S224.5,24.3,228.4,24.3 M234.9,0v19.1
		c-2.7-2.7-5.6-3.9-9.4-3.9c-8.6,0-15.3,7-15.3,16.1c0,9.1,6.7,16.2,15.3,16.2c4.1,0,7-1.3,9.4-4.4v3.3h10.7V0H234.9z M185.6,27
		c0.6-3.1,2.7-4.9,6.2-4.9c3,0,5.4,1.9,6.1,4.9H185.6z M207.9,33.3v-1.4c0-10.4-6.4-16.6-16.9-16.6c-10,0-16.5,6.4-16.5,16.3
		c0,9.8,6.9,16.1,17.6,16.1c8,0,13.3-3.6,15.3-10.4h-10.3c-1.3,2.1-2.7,2.9-5.2,2.9c-4.4,0-6.6-2.2-6.6-6.8H207.9z M150.1,16.1v30.3
		h10.7v-13c0-5.6,2.5-8.5,7.5-8.5c1.8,0,2.8,0.2,4.6,1.1V15.8c-1.1-0.1-1.3-0.1-2.1-0.1c-4.6,0-7.5,1.5-10,5.4v-5H150.1z
		 M127.9,24.3c3.8,0,6.9,3.1,6.9,7c0,3.8-3.1,6.9-6.9,6.9c-3.8,0-7-3.1-7-7S124,24.3,127.9,24.3 M134.4,0v19.1
		c-2.7-2.7-5.6-3.9-9.4-3.9c-8.6,0-15.3,7-15.3,16.1c0,9.1,6.7,16.2,15.3,16.2c4.1,0,7-1.3,9.4-4.4v3.3h10.7V0H134.4z M74.4,16.1
		v30.3h10.7V30.2c0-4,2.1-6.2,5.6-6.2c1.9,0,3.6,0.9,4.3,2.3c0.6,1.1,0.7,1.7,0.7,4.8v15.3h10.7V27.2c0-4.2-0.7-6.2-2.8-8.4
		c-2.1-2.2-5-3.3-8.6-3.3c-4.5,0-7,1.1-9.8,4.5v-3.8H74.4z M48.8,27c0.6-3.1,2.7-4.9,6.2-4.9c3,0,5.4,1.9,6.1,4.9H48.8z M71.1,33.3
		v-1.4c0-10.4-6.4-16.6-16.9-16.6c-10,0-16.5,6.4-16.5,16.3c0,9.8,6.9,16.1,17.6,16.1c8,0,13.3-3.6,15.3-10.4H60.3
		c-1.3,2.1-2.7,2.9-5.2,2.9c-4.4,0-6.6-2.2-6.6-6.8H71.1z M13.1,16.1H1l15.7,30.3h7.2l15.8-30.3h-12l-7.4,15.5L13.1,16.1z"/>
</g>
</svg>
