<?xml version="1.0" encoding="utf-8"?>
<!-- Generator: Adobe Illustrator 18.0.0, SVG Export Plug-In . SVG Version: 6.00 Build 0)  -->
<!DOCTYPE svg PUBLIC "-//W3C//DTD SVG 1.1//EN" "http://www.w3.org/Graphics/SVG/1.1/DTD/svg11.dtd">
<svg version="1.1" id="Calque_1" xmlns="http://www.w3.org/2000/svg" xmlns:xlink="http://www.w3.org/1999/xlink" x="0px" y="0px"
	 viewBox="-26 0 671 792" enable-background="new -26 0 671 792" xml:space="preserve">
<g>
	<g>
		<defs>
			<rect id="SVGID_1_" x="2.3" y="340.7" width="606.7" height="110.9"/>
		</defs>
		<clipPath id="SVGID_2_">
			<use xlink:href="#SVGID_1_"  overflow="visible"/>
		</clipPath>
		<path clip-path="url(#SVGID_2_)" d="M595,343.2c-7.7,0-13.9,6.3-13.9,13.9c0,7.7,6.3,13.9,13.9,13.9c7.7,0,13.9-6.3,13.9-13.9
			C609,349.5,602.7,343.2,595,343.2 M607.4,378.1h-24.9v70.4h24.9V378.1z M530.9,397.2c8.8,0,16,7.2,16,16.3c0,8.8-7.2,16-16,16
			c-8.8,0-16.3-7.2-16.3-16.3S521.8,397.2,530.9,397.2 M546,340.7v44.4c-6.3-6.3-13-9.1-21.8-9.1c-20,0-35.6,16.3-35.6,37.4
			c0,21.2,15.6,37.7,35.6,37.7c9.5,0,16.3-3,21.8-10.2v7.7h24.9V340.7H546z M431.4,403.4c1.4-7.2,6.3-11.4,14.4-11.4
			c7,0,12.6,4.4,14.2,11.4H431.4z M483.2,418.1v-3.3c0-24.2-14.9-38.6-39.3-38.6c-23.2,0-38.4,14.9-38.4,37.9
			c0,22.8,16,37.4,40.9,37.4c18.6,0,30.9-8.4,35.6-24.2h-23.9c-3,4.9-6.3,6.7-12.1,6.7c-10.2,0-15.3-5.1-15.3-15.8h52.5V418.1z
			 M348.9,378.1v70.4h24.9v-30.2c0-13,5.8-19.8,17.4-19.8c4.2,0,6.5,0.5,10.7,2.6v-23.7c-2.6-0.2-3-0.2-4.9-0.2
			c-10.7,0-17.4,3.5-23.2,12.6v-11.6H348.9z M297.3,397.2c8.8,0,16,7.2,16,16.3c0,8.8-7.2,16-16,16c-8.8,0-16.3-7.2-16.3-16.3
			S288.2,397.2,297.3,397.2 M312.4,340.7v44.4c-6.3-6.3-13-9.1-21.8-9.1c-20,0-35.6,16.3-35.6,37.4c0,21.2,15.6,37.7,35.6,37.7
			c9.5,0,16.3-3,21.8-10.2v7.7h24.9V340.7H312.4z M172.9,378.1v70.4h24.9v-37.7c0-9.3,4.9-14.4,13-14.4c4.4,0,8.4,2.1,10,5.3
			c1.4,2.6,1.6,4,1.6,11.2v35.6h24.9v-44.6c0-9.8-1.6-14.4-6.5-19.5c-4.9-5.1-11.6-7.7-20-7.7c-10.5,0-16.3,2.6-22.8,10.5v-8.8
			h-25.1V378.1z M113.4,403.4c1.4-7.2,6.3-11.4,14.4-11.4c7,0,12.6,4.4,14.2,11.4H113.4z M165.3,418.1v-3.3
			c0-24.2-14.9-38.6-39.3-38.6c-23.2,0-38.4,14.9-38.4,37.9c0,22.8,16,37.4,40.9,37.4c18.6,0,30.9-8.4,35.6-24.2h-23.9
			c-3,4.9-6.3,6.7-12.1,6.7c-10.2,0-15.3-5.1-15.3-15.8h52.5V418.1z M30.4,378.1H2.3l36.5,70.4h16.7l36.7-70.4H64.4l-17.2,36
			L30.4,378.1z"/>
	</g>
</g>
</svg>
